<svg width="371" height="106" viewBox="0 0 371 106" fill="none" xmlns="http://www.w3.org/2000/svg">
<path d="M135.321 105.455C137.426 105.455 139.223 104.911 140.666 103.8C142.132 102.688 143.149 101.34 143.693 99.7555L141.943 98.9278C140.879 101.837 138.679 103.611 135.392 103.611C133.287 103.611 131.561 102.877 130.189 101.435C128.817 99.992 128.132 98.1473 128.132 95.9478C128.132 93.7484 128.841 91.951 130.236 90.5319C131.655 89.1129 133.358 88.4034 135.368 88.4034C137.142 88.4034 138.561 88.8528 139.626 89.7515C140.713 90.6265 141.47 91.7381 141.92 93.0389L143.67 92.2348C143.173 90.6738 142.203 89.3494 140.761 88.2379C139.318 87.1263 137.544 86.5587 135.416 86.5587C132.838 86.5587 130.638 87.4574 128.817 89.2548C126.996 91.0286 126.098 93.299 126.098 96.0661C126.098 98.8095 126.973 101.056 128.746 102.83C130.52 104.58 132.72 105.455 135.321 105.455Z" fill="white"/>
<path d="M164.503 95.9478C164.503 93.299 163.605 91.0759 161.831 89.2785C160.057 87.4574 157.858 86.5587 155.233 86.5587C152.56 86.5587 150.337 87.4811 148.563 89.3021C146.789 91.1232 145.891 93.3936 145.891 96.0661C145.891 98.7149 146.766 100.938 148.54 102.759C150.313 104.557 152.536 105.455 155.162 105.455C157.834 105.455 160.057 104.533 161.831 102.712C163.605 100.891 164.503 98.6203 164.503 95.9478ZM162.493 96.0661C162.493 98.171 161.807 99.9447 160.436 101.435C159.064 102.901 157.337 103.634 155.233 103.634C153.128 103.634 151.378 102.877 149.982 101.387C148.587 99.8974 147.901 98.0764 147.901 95.9478C147.901 93.843 148.587 92.0692 149.959 90.6029C151.33 89.1129 153.057 88.3798 155.162 88.3798C157.267 88.3798 159.017 89.1366 160.412 90.6265C161.807 92.1165 162.493 93.9376 162.493 96.0661Z" fill="white"/>
<path d="M183.436 86.7479H181.521V102.215L170.594 86.7479H168.347V105.266H170.263V89.4913L181.355 105.266H183.436V86.7479Z" fill="white"/>
<path d="M193.593 105.455C195.39 105.455 196.833 104.959 197.921 103.942C199.009 102.925 199.553 101.695 199.553 100.276C199.553 99.117 199.127 98.0764 198.275 97.154C197.353 96.137 195.792 95.3566 193.616 94.8126C190.802 94.0795 189.667 93.1808 189.667 91.5016C189.667 90.5792 190.045 89.8224 190.802 89.2312C191.559 88.6399 192.457 88.3561 193.498 88.3561C195.532 88.3561 196.951 89.3494 197.731 91.3124L199.387 90.39C198.512 88.0487 196.478 86.5351 193.545 86.5351C191.937 86.5351 190.565 87.0081 189.43 87.9304C188.295 88.8528 187.727 90.0589 187.727 91.5962C187.727 94.1741 189.478 95.8059 193.262 96.7283C196.1 97.4142 197.566 98.5257 197.566 100.418C197.566 101.364 197.188 102.144 196.407 102.735C195.65 103.327 194.704 103.634 193.593 103.634C191.204 103.634 189.809 102.357 188.863 100.063L187.183 100.938C188.319 103.942 190.447 105.455 193.593 105.455Z" fill="white"/>
<path d="M215.184 86.7479V98.171C215.184 101.648 213.434 103.634 210.241 103.634C207.143 103.634 205.156 101.908 205.156 98.0527V86.7479H203.217V98.1473C203.217 100.37 203.832 102.144 205.038 103.469C206.244 104.793 207.97 105.455 210.17 105.455C214.545 105.455 217.123 102.735 217.123 98.0291V86.7479H215.184Z" fill="white"/>
<path d="M223.985 86.7479H222.045V105.266H232.759V103.445H223.985V86.7479Z" fill="white"/>
<path d="M237.246 105.266H239.209V88.569H245.382V86.7479H231.05V88.569H237.246V105.266Z" fill="white"/>
<path d="M264.693 95.9478C264.693 93.299 263.795 91.0759 262.021 89.2785C260.247 87.4574 258.048 86.5587 255.423 86.5587C252.75 86.5587 250.527 87.4811 248.753 89.3021C246.979 91.1232 246.081 93.3936 246.081 96.0661C246.081 98.7149 246.956 100.938 248.73 102.759C250.503 104.557 252.726 105.455 255.352 105.455C258.024 105.455 260.247 104.533 262.021 102.712C263.795 100.891 264.693 98.6203 264.693 95.9478ZM262.683 96.0661C262.683 98.171 261.997 99.9447 260.626 101.435C259.254 102.901 257.527 103.634 255.423 103.634C253.318 103.634 251.568 102.877 250.172 101.387C248.777 99.8974 248.091 98.0764 248.091 95.9478C248.091 93.843 248.777 92.0692 250.149 90.6029C251.52 89.1129 253.247 88.3798 255.352 88.3798C257.457 88.3798 259.207 89.1366 260.602 90.6265C261.997 92.1165 262.683 93.9376 262.683 96.0661Z" fill="white"/>
<path d="M274.261 97.7689L279.724 105.266H282.089L276.366 97.4378C277.832 97.2486 279.038 96.7046 280.008 95.7823C280.977 94.8599 281.45 93.6538 281.45 92.1402C281.45 90.6029 280.906 89.3021 279.795 88.2852C278.707 87.2682 277.099 86.7479 274.947 86.7479H268.537V105.266H270.477V97.7689H274.261ZM270.477 88.569H274.828C278.068 88.569 279.487 90.1299 279.487 92.2111C279.487 93.2517 279.085 94.1504 278.305 94.8836C277.524 95.6167 276.342 95.9951 274.781 95.9951H270.477V88.569Z" fill="white"/>
<path d="M287.498 86.7479H285.559V105.266H287.498V86.7479Z" fill="white"/>
<path d="M294.163 100.536H304.262L306.272 105.266H308.33L300.336 86.7479H298.136L290.143 105.266H292.129L294.163 100.536ZM294.896 98.7622L299.201 88.7582L303.505 98.7622H294.896Z" fill="white"/>
<line x1="126.134" y1="79.3019" x2="308.766" y2="79.3019" stroke="white" stroke-width="2"/>
<path d="M127.028 34.6308L149.732 68.6871H160.138V19.3054H150.047V51.5328L128.605 19.3054H116.937V68.6871H127.028V34.6308Z" fill="white"/>
<path d="M181.907 19.3054H171.69V68.6871H181.907V19.3054Z" fill="white"/>
<path d="M237.767 36.0813H237.83V68.6871H247.921V19.3054H234.361L220.613 52.4157L206.612 19.3054H193.431V68.6871H203.458V36.3336H203.521L217.207 68.6871H224.018L237.767 36.0813Z" fill="white"/>
<path d="M256.365 44.0278C256.365 51.1544 258.825 57.1458 263.807 62.065C268.79 66.9842 274.781 69.4439 281.908 69.4439C289.034 69.4439 295.089 66.9842 300.071 62.0019C305.116 57.0196 307.639 50.9021 307.639 43.7755C307.639 36.712 305.179 30.7206 300.197 25.8644C295.278 21.0083 289.286 18.5486 282.16 18.5486C275.033 18.5486 268.979 21.0083 263.933 25.9906C258.888 30.9729 256.365 36.9643 256.365 44.0278ZM271.249 32.991C274.213 29.9638 277.808 28.4502 282.034 28.4502C286.259 28.4502 289.854 29.9638 292.818 32.991C295.782 36.0183 297.233 39.6762 297.233 43.9647C297.233 48.2533 295.782 51.9112 292.818 55.0015C289.854 58.0287 286.259 59.5423 282.034 59.5423C277.808 59.5423 274.213 58.0287 271.249 55.0015C268.285 51.9112 266.835 48.2533 266.835 43.9647C266.835 39.6762 268.285 36.0183 271.249 32.991Z" fill="white"/>
<path d="M20.4923 85.5077L105.112 106L-4.59459e-06 106L0 0.888026L20.4923 85.5077Z" fill="white"/>
<path d="M350.105 20.6056L265.598 0L370.71 -4.59459e-06L370.71 105.112L350.105 20.6056Z" fill="white"/>
<path d="M79.6359 67.5719L66.1613 70.0942L79.6359 56.9552L92.4394 69.4398L79.6359 67.5719Z" fill="white"/>
<path d="M65.6905 64.5894L68.1312 58.0825H91.0996L99.8201 78.1679L106.793 68.8211L86.2014 19.278H73.2941L56.5158 61.2866L65.6905 64.5894ZM79.6359 29.3588L91.0996 58.0825H68.1312L79.6359 29.3588Z" fill="white"/>
</svg>
